<?xml version="1.0" encoding="UTF-8"?>
<svg xmlns="http://www.w3.org/2000/svg" width="152" height="24" viewBox="0 0 152 24" fill="none">
  <g clip-path="url(#clip0_6601_6175)">
    <path d="M73.0076 12.0026C73.0076 14.4952 72.5528 16.6398 71.6433 18.4312C70.7339 20.2226 69.4872 21.5995 67.9032 22.5617C66.3193 23.524 64.5208 24.0051 62.5128 24.0051C60.5048 24.0051 58.6909 23.524 57.1121 22.5617C55.5282 21.5995 54.2815 20.2226 53.372 18.4261C52.4626 16.6296 52.0078 14.4901 52.0078 12.0026C52.0078 9.51503 52.4626 7.36532 53.372 5.5739C54.2815 3.78247 55.5282 2.40563 57.1121 1.44338C58.6961 0.481126 60.4946 0 62.5128 0C64.531 0 66.3193 0.481126 67.9032 1.44338C69.4872 2.40563 70.7339 3.78247 71.6433 5.5739C72.5528 7.36532 73.0076 9.50992 73.0076 12.0026ZM69.5229 12.0026C69.5229 10.1036 69.2164 8.49648 68.6083 7.19642C67.9952 5.89123 67.1624 4.90339 66.1047 4.23288C65.0471 3.56238 63.8464 3.22457 62.5128 3.22457C61.1792 3.22457 59.9683 3.56238 58.9158 4.23288C57.8581 4.90339 57.0253 5.89635 56.4172 7.19642C55.8041 8.5016 55.5027 10.1036 55.5027 12.0026C55.5027 13.9015 55.8092 15.5086 56.4172 16.8087C57.0304 18.1139 57.8632 19.1017 58.9158 19.7722C59.9683 20.4427 61.169 20.7805 62.5128 20.7805C63.8566 20.7805 65.0471 20.4427 66.1047 19.7722C67.1624 19.1017 68.0003 18.1088 68.6083 16.8087C69.2215 15.5035 69.5229 13.9015 69.5229 12.0026Z" fill="#0E0E0E"></path>
    <path d="M94.2967 14.1226V0.318359H97.7814V23.6786H94.5471L84.4049 9.28573C83.8071 8.43608 82.4735 8.86091 82.4735 9.89993V23.6837H78.9531V0.318359H82.2078L92.3603 14.7368C92.9581 15.5864 94.2916 15.1616 94.2916 14.1226H94.2967Z" fill="#0E0E0E"></path>
    <path d="M108.052 0.318359V23.6786H104.531V0.318359H108.052Z" fill="#0E0E0E"></path>
    <path d="M113.641 3.35355V0.318359H131.687V3.35355H127.732C125.898 3.35355 124.411 4.84299 124.411 6.68048V23.6786H120.906V6.68048C120.906 4.84299 119.419 3.35355 117.585 3.35355H113.641Z" fill="#0E0E0E"></path>
    <path d="M137.242 23.6837V0.318359H151.865V3.35355H144.314C142.352 3.35355 140.763 4.94536 140.763 6.91081C140.763 8.87626 142.352 10.4681 144.314 10.4681H151.099V13.493H144.314C142.352 13.493 140.763 15.0848 140.763 17.0503V17.0861C140.763 19.0516 142.352 20.6434 144.314 20.6434H151.998V23.6786H137.242V23.6837Z" fill="#0E0E0E"></path>
    <path d="M35.4948 0.318359V3.35355H39.1992C41.0232 3.35355 42.4999 4.83275 42.4999 6.66001V16.8814C42.4999 17.772 42.3619 18.5244 42.0911 19.1386C41.8152 19.7528 41.4218 20.2185 40.9006 20.5359C40.3795 20.8532 39.751 21.0068 39.005 21.0068C38.3204 21.0068 37.7174 20.8737 37.1912 20.6127C36.6649 20.3516 36.251 19.9831 35.9496 19.5122C35.6481 19.0413 35.5 18.4834 35.5 17.8334V16.8814H32V17.8436C32 19.1539 32.3015 20.2697 32.9044 21.1859C33.5073 22.1021 34.3299 22.7982 35.3773 23.2793C36.4197 23.7605 37.5999 23.9959 38.9131 23.9959C40.3386 23.9959 41.5853 23.7144 42.648 23.1565C43.7108 22.5986 44.5385 21.7848 45.1261 20.7201C45.7137 19.6555 46.01 18.3759 46.01 16.8763V0.318359H35.4948Z" fill="#0E0E0E"></path>
    <path d="M18.8546 9.10331C18.8546 7.46754 17.5286 6.45644 15.8927 6.45644H6.48212C4.84633 6.45644 3.52026 7.46754 3.52026 9.10331V14.9972C3.52026 16.633 4.84633 17.9591 6.48212 17.9591H15.8927C17.5286 17.9591 18.8546 16.633 18.8546 14.9972V9.10331ZM18.8546 23.9998C18.8546 22.364 17.5286 21.0379 15.8927 21.0379H6.48212C4.84633 21.0379 3.52026 22.364 3.52026 23.9998H0V0.319824H3.52026C3.52026 1.95564 4.84633 3.41566 6.48212 3.41566H15.8927C17.5286 3.41566 18.8546 1.95564 18.8546 0.319824H22.362V23.9998H18.8546Z" fill="#0E0E0E"></path>
  </g>
  <defs>
    <clipPath id="clip0_6601_6175">
      <rect width="152" height="24" fill="white"></rect>
    </clipPath>
  </defs>
</svg>
